<svg width="48" height="48" viewBox="0 0 48 48" fill="none" xmlns="http://www.w3.org/2000/svg">
<path opacity="0.4" d="M32.1656 4.33246L15.8296 4.33246C8.75156 4.33246 3.99756 8.88446 3.99756 15.6625L3.99756 33.0025C3.99756 39.7805 8.75156 44.3325 15.8296 44.3325L32.1656 44.3325C39.2416 44.3325 43.9976 39.7785 43.9976 33.0005L43.9976 15.6625C43.9976 8.88446 39.2416 4.33246 32.1656 4.33246Z" fill="white"/>
<path d="M22.2866 15.7738L14.7566 23.2698C14.1906 23.8338 14.1906 24.8318 14.7566 25.3978L22.2866 32.8938C22.8746 33.4778 23.8246 33.4758 24.4086 32.8878C24.9926 32.2998 24.9926 31.3518 24.4046 30.7658L19.4506 25.8318H32.1606C32.9906 25.8318 33.6606 25.1598 33.6606 24.3318C33.6606 23.5038 32.9906 22.8318 32.1606 22.8318L19.4506 22.8318L24.4046 17.8998C24.6986 17.6058 24.8446 17.2218 24.8446 16.8358C24.8446 16.4538 24.6986 16.0698 24.4086 15.7778C23.8246 15.1918 22.8746 15.1898 22.2866 15.7738Z" fill="white"/>
</svg>
